<mxfile host="65bd71144e">
    <diagram id="BNy0uYMQj_KFqcSRItgE" name="Page-1">
        <mxGraphModel dx="646" dy="812" grid="1" gridSize="10" guides="1" tooltips="1" connect="1" arrows="1" fold="1" page="1" pageScale="1" pageWidth="827" pageHeight="1169" math="0" shadow="0">
            <root>
                <mxCell id="0"/>
                <mxCell id="1" parent="0"/>
                <mxCell id="56" value="&#10;Records" style="shape=table;startSize=30;container=1;collapsible=0;childLayout=tableLayout;fontStyle=1;align=center;" parent="1" vertex="1">
                    <mxGeometry x="40" y="470" width="480" height="63" as="geometry"/>
                </mxCell>
                <mxCell id="57" value="" style="shape=tableRow;horizontal=0;startSize=0;swimlaneHead=0;swimlaneBody=0;top=0;left=0;bottom=0;right=0;collapsible=0;dropTarget=0;fillColor=none;points=[[0,0.5],[1,0.5]];portConstraint=eastwest;" parent="56" vertex="1">
                    <mxGeometry y="30" width="480" height="33" as="geometry"/>
                </mxCell>
                <mxCell id="58" value="record_id" style="shape=partialRectangle;html=1;whiteSpace=wrap;connectable=0;fillColor=none;top=0;left=0;bottom=0;right=0;overflow=hidden;" parent="57" vertex="1">
                    <mxGeometry width="120" height="33" as="geometry">
                        <mxRectangle width="120" height="33" as="alternateBounds"/>
                    </mxGeometry>
                </mxCell>
                <mxCell id="59" value="date" style="shape=partialRectangle;html=1;whiteSpace=wrap;connectable=0;fillColor=none;top=0;left=0;bottom=0;right=0;overflow=hidden;" parent="57" vertex="1">
                    <mxGeometry x="120" width="120" height="33" as="geometry">
                        <mxRectangle width="120" height="33" as="alternateBounds"/>
                    </mxGeometry>
                </mxCell>
                <mxCell id="60" value="name" style="shape=partialRectangle;html=1;whiteSpace=wrap;connectable=0;fillColor=none;top=0;left=0;bottom=0;right=0;overflow=hidden;" parent="57" vertex="1">
                    <mxGeometry x="240" width="120" height="33" as="geometry">
                        <mxRectangle width="120" height="33" as="alternateBounds"/>
                    </mxGeometry>
                </mxCell>
                <mxCell id="61" value="amount" style="shape=partialRectangle;html=1;whiteSpace=wrap;connectable=0;fillColor=none;top=0;left=0;bottom=0;right=0;overflow=hidden;" parent="57" vertex="1">
                    <mxGeometry x="360" width="120" height="33" as="geometry">
                        <mxRectangle width="120" height="33" as="alternateBounds"/>
                    </mxGeometry>
                </mxCell>
                <mxCell id="68" value="Driver_Trip" style="shape=table;startSize=30;container=1;collapsible=0;childLayout=tableLayout;fontStyle=1;align=center;" parent="1" vertex="1">
                    <mxGeometry x="40" y="180" width="600" height="63" as="geometry"/>
                </mxCell>
                <mxCell id="69" value="" style="shape=tableRow;horizontal=0;startSize=0;swimlaneHead=0;swimlaneBody=0;top=0;left=0;bottom=0;right=0;collapsible=0;dropTarget=0;fillColor=none;points=[[0,0.5],[1,0.5]];portConstraint=eastwest;" parent="68" vertex="1">
                    <mxGeometry y="30" width="600" height="33" as="geometry"/>
                </mxCell>
                <mxCell id="149" value="trip_id" style="shape=partialRectangle;html=1;whiteSpace=wrap;connectable=0;fillColor=none;top=0;left=0;bottom=0;right=0;overflow=hidden;" parent="69" vertex="1">
                    <mxGeometry width="120" height="33" as="geometry">
                        <mxRectangle width="120" height="33" as="alternateBounds"/>
                    </mxGeometry>
                </mxCell>
                <mxCell id="70" value="employee_id" style="shape=partialRectangle;html=1;whiteSpace=wrap;connectable=0;fillColor=none;top=0;left=0;bottom=0;right=0;overflow=hidden;" parent="69" vertex="1">
                    <mxGeometry x="120" width="120" height="33" as="geometry">
                        <mxRectangle width="120" height="33" as="alternateBounds"/>
                    </mxGeometry>
                </mxCell>
                <mxCell id="71" value="date" style="shape=partialRectangle;html=1;whiteSpace=wrap;connectable=0;fillColor=none;top=0;left=0;bottom=0;right=0;overflow=hidden;" parent="69" vertex="1">
                    <mxGeometry x="240" width="120" height="33" as="geometry">
                        <mxRectangle width="120" height="33" as="alternateBounds"/>
                    </mxGeometry>
                </mxCell>
                <mxCell id="72" value="region_id" style="shape=partialRectangle;html=1;whiteSpace=wrap;connectable=0;fillColor=none;top=0;left=0;bottom=0;right=0;overflow=hidden;" parent="69" vertex="1">
                    <mxGeometry x="360" width="120" height="33" as="geometry">
                        <mxRectangle width="120" height="33" as="alternateBounds"/>
                    </mxGeometry>
                </mxCell>
                <mxCell id="73" value="departure_time" style="shape=partialRectangle;html=1;whiteSpace=wrap;connectable=0;fillColor=none;top=0;left=0;bottom=0;right=0;overflow=hidden;" parent="69" vertex="1">
                    <mxGeometry x="480" width="120" height="33" as="geometry">
                        <mxRectangle width="120" height="33" as="alternateBounds"/>
                    </mxGeometry>
                </mxCell>
                <mxCell id="87" value="Employee_Shift" style="shape=table;startSize=30;container=1;collapsible=0;childLayout=tableLayout;fontStyle=1;align=center;" parent="1" vertex="1">
                    <mxGeometry x="40" y="370" width="600" height="63" as="geometry"/>
                </mxCell>
                <mxCell id="88" value="" style="shape=tableRow;horizontal=0;startSize=0;swimlaneHead=0;swimlaneBody=0;top=0;left=0;bottom=0;right=0;collapsible=0;dropTarget=0;fillColor=none;points=[[0,0.5],[1,0.5]];portConstraint=eastwest;" parent="87" vertex="1">
                    <mxGeometry y="30" width="600" height="33" as="geometry"/>
                </mxCell>
                <mxCell id="147" value="shift_if" style="shape=partialRectangle;html=1;whiteSpace=wrap;connectable=0;fillColor=none;top=0;left=0;bottom=0;right=0;overflow=hidden;" parent="88" vertex="1">
                    <mxGeometry width="120" height="33" as="geometry">
                        <mxRectangle width="120" height="33" as="alternateBounds"/>
                    </mxGeometry>
                </mxCell>
                <mxCell id="89" value="employee_name" style="shape=partialRectangle;html=1;whiteSpace=wrap;connectable=0;fillColor=none;top=0;left=0;bottom=0;right=0;overflow=hidden;" parent="88" vertex="1">
                    <mxGeometry x="120" width="120" height="33" as="geometry">
                        <mxRectangle width="120" height="33" as="alternateBounds"/>
                    </mxGeometry>
                </mxCell>
                <mxCell id="90" value="start_time" style="shape=partialRectangle;html=1;whiteSpace=wrap;connectable=0;fillColor=none;top=0;left=0;bottom=0;right=0;overflow=hidden;" parent="88" vertex="1">
                    <mxGeometry x="240" width="120" height="33" as="geometry">
                        <mxRectangle width="120" height="33" as="alternateBounds"/>
                    </mxGeometry>
                </mxCell>
                <mxCell id="101" value="end_time" style="shape=partialRectangle;html=1;whiteSpace=wrap;connectable=0;fillColor=none;top=0;left=0;bottom=0;right=0;overflow=hidden;" parent="88" vertex="1">
                    <mxGeometry x="360" width="120" height="33" as="geometry">
                        <mxRectangle width="120" height="33" as="alternateBounds"/>
                    </mxGeometry>
                </mxCell>
                <mxCell id="100" value="date" style="shape=partialRectangle;html=1;whiteSpace=wrap;connectable=0;fillColor=none;top=0;left=0;bottom=0;right=0;overflow=hidden;" parent="88" vertex="1">
                    <mxGeometry x="480" width="120" height="33" as="geometry">
                        <mxRectangle width="120" height="33" as="alternateBounds"/>
                    </mxGeometry>
                </mxCell>
                <mxCell id="113" value="Employee" style="shape=table;startSize=30;container=1;collapsible=0;childLayout=tableLayout;fontStyle=1;align=center;" parent="1" vertex="1">
                    <mxGeometry x="40" y="280" width="480" height="63" as="geometry"/>
                </mxCell>
                <mxCell id="114" value="" style="shape=tableRow;horizontal=0;startSize=0;swimlaneHead=0;swimlaneBody=0;top=0;left=0;bottom=0;right=0;collapsible=0;dropTarget=0;fillColor=none;points=[[0,0.5],[1,0.5]];portConstraint=eastwest;" parent="113" vertex="1">
                    <mxGeometry y="30" width="480" height="33" as="geometry"/>
                </mxCell>
                <mxCell id="115" value="employee_id" style="shape=partialRectangle;html=1;whiteSpace=wrap;connectable=0;fillColor=none;top=0;left=0;bottom=0;right=0;overflow=hidden;" parent="114" vertex="1">
                    <mxGeometry width="120" height="33" as="geometry">
                        <mxRectangle width="120" height="33" as="alternateBounds"/>
                    </mxGeometry>
                </mxCell>
                <mxCell id="116" value="name" style="shape=partialRectangle;html=1;whiteSpace=wrap;connectable=0;fillColor=none;top=0;left=0;bottom=0;right=0;overflow=hidden;" parent="114" vertex="1">
                    <mxGeometry x="120" width="120" height="33" as="geometry">
                        <mxRectangle width="120" height="33" as="alternateBounds"/>
                    </mxGeometry>
                </mxCell>
                <mxCell id="117" value="hourly_pay_cents" style="shape=partialRectangle;html=1;whiteSpace=wrap;connectable=0;fillColor=none;top=0;left=0;bottom=0;right=0;overflow=hidden;" parent="114" vertex="1">
                    <mxGeometry x="240" width="120" height="33" as="geometry">
                        <mxRectangle width="120" height="33" as="alternateBounds"/>
                    </mxGeometry>
                </mxCell>
                <mxCell id="118" value="shift_pay_cents" style="shape=partialRectangle;html=1;whiteSpace=wrap;connectable=0;fillColor=none;top=0;left=0;bottom=0;right=0;overflow=hidden;" parent="114" vertex="1">
                    <mxGeometry x="360" width="120" height="33" as="geometry">
                        <mxRectangle width="120" height="33" as="alternateBounds"/>
                    </mxGeometry>
                </mxCell>
                <mxCell id="150" value="Region" style="shape=table;startSize=30;container=1;collapsible=0;childLayout=tableLayout;fontStyle=1;align=center;" parent="1" vertex="1">
                    <mxGeometry x="40" y="80" width="360" height="63" as="geometry"/>
                </mxCell>
                <mxCell id="151" value="" style="shape=tableRow;horizontal=0;startSize=0;swimlaneHead=0;swimlaneBody=0;top=0;left=0;bottom=0;right=0;collapsible=0;dropTarget=0;fillColor=none;points=[[0,0.5],[1,0.5]];portConstraint=eastwest;" parent="150" vertex="1">
                    <mxGeometry y="30" width="360" height="33" as="geometry"/>
                </mxCell>
                <mxCell id="152" value="region_id" style="shape=partialRectangle;html=1;whiteSpace=wrap;connectable=0;fillColor=none;top=0;left=0;bottom=0;right=0;overflow=hidden;" parent="151" vertex="1">
                    <mxGeometry width="120" height="33" as="geometry">
                        <mxRectangle width="120" height="33" as="alternateBounds"/>
                    </mxGeometry>
                </mxCell>
                <mxCell id="153" value="name" style="shape=partialRectangle;html=1;whiteSpace=wrap;connectable=0;fillColor=none;top=0;left=0;bottom=0;right=0;overflow=hidden;" parent="151" vertex="1">
                    <mxGeometry x="120" width="120" height="33" as="geometry">
                        <mxRectangle width="120" height="33" as="alternateBounds"/>
                    </mxGeometry>
                </mxCell>
                <mxCell id="154" value="fee" style="shape=partialRectangle;html=1;whiteSpace=wrap;connectable=0;fillColor=none;top=0;left=0;bottom=0;right=0;overflow=hidden;" parent="151" vertex="1">
                    <mxGeometry x="240" width="120" height="33" as="geometry">
                        <mxRectangle width="120" height="33" as="alternateBounds"/>
                    </mxGeometry>
                </mxCell>
            </root>
        </mxGraphModel>
    </diagram>
</mxfile>